<svg xmlns="http://www.w3.org/2000/svg" fill-rule="evenodd" stroke-linejoin="round" stroke-miterlimit="2" clip-rule="evenodd" viewBox="0 0 24 24"><g transform="translate(-40 -40)"><rect width="24" height="24" x="40" y="40" fill="none"/><path fill="#2c2c2c" d="M98.455,257.357C97.463,258.279 96.133,258.844 94.675,258.844C91.609,258.844 89.115,256.35 89.115,253.284C89.115,252.066 89.511,250.936 90.186,250.023C89.879,249.607 89.536,249.386 89.536,249.386C89.196,249.173 89.039,248.76 89.15,248.375C89.261,247.99 89.614,247.725 90.015,247.725L94.675,247.725C97.185,247.725 99.312,249.397 100,251.685C100.688,249.397 102.815,247.725 105.325,247.725L109.985,247.725C110.386,247.725 110.739,247.99 110.85,248.375C110.961,248.76 110.804,249.173 110.464,249.386C110.464,249.386 110.121,249.607 109.814,250.023C110.489,250.936 110.885,252.066 110.885,253.284C110.885,256.35 108.391,258.844 105.325,258.844C103.881,258.844 102.563,258.29 101.573,257.383L100.783,258.472C100.617,258.701 100.353,258.839 100.07,258.844C99.788,258.849 99.519,258.721 99.345,258.498L98.455,257.357ZM97.772,255.413C98.19,254.808 98.434,254.074 98.434,253.284C98.434,251.211 96.748,249.525 94.675,249.525L91.992,249.525C92.029,249.596 92.066,249.669 92.1,249.745C92.251,250.079 92.184,250.471 91.932,250.736C91.3,251.4 90.915,252.299 90.915,253.284C90.915,255.358 92.601,257.044 94.675,257.044C95.942,257.044 97.065,256.414 97.746,255.45C97.754,255.438 97.763,255.425 97.772,255.413ZM102.253,255.45C102.935,256.414 104.058,257.044 105.325,257.044C107.399,257.044 109.085,255.358 109.085,253.284C109.085,252.299 108.7,251.4 108.068,250.736C107.816,250.471 107.749,250.079 107.9,249.745C107.934,249.669 107.971,249.596 108.008,249.525L105.325,249.525C103.252,249.525 101.566,251.211 101.566,253.284C101.566,254.074 101.81,254.808 102.228,255.413C102.237,255.425 102.245,255.437 102.253,255.45ZM100,254.883C99.895,255.232 99.757,255.567 99.589,255.883L100.028,256.447L100.422,255.904C100.249,255.581 100.107,255.24 100,254.883ZM94.675,250.884C93.35,250.884 92.275,251.96 92.275,253.284C92.275,254.609 93.35,255.684 94.675,255.684C95.999,255.684 97.075,254.609 97.075,253.284C97.075,251.96 95.999,250.884 94.675,250.884ZM105.325,250.884C104.001,250.884 102.925,251.96 102.925,253.284C102.925,254.609 104.001,255.684 105.325,255.684C106.65,255.684 107.725,254.609 107.725,253.284C107.725,251.96 106.65,250.884 105.325,250.884ZM94.675,252.684C95.006,252.684 95.275,252.953 95.275,253.284C95.275,253.615 95.006,253.884 94.675,253.884C94.343,253.884 94.075,253.615 94.075,253.284C94.075,252.953 94.343,252.684 94.675,252.684ZM105.325,252.684C105.657,252.684 105.925,252.953 105.925,253.284C105.925,253.615 105.657,253.884 105.325,253.884C104.994,253.884 104.725,253.615 104.725,253.284C104.725,252.953 104.994,252.684 105.325,252.684ZM97.249,247.382C99.034,246.814 100.966,246.814 102.751,247.382C103.224,247.533 103.731,247.271 103.882,246.798C104.032,246.325 103.771,245.818 103.297,245.667C101.158,244.986 98.842,244.986 96.703,245.667C96.229,245.818 95.968,246.325 96.118,246.798C96.269,247.271 96.776,247.533 97.249,247.382Z" transform="translate(-48 -200)"/></g></svg>